# xmcd
#
# Track frame offsets:
#	150
#	12022
#	23310
#	38665
#	49395
#	62665
#	73852
#	83342
#	103257
#	113475
#	122862
#	137767
#	149557
#	159262
#	172642
#	188267
#	201305
#	214535
#	231047
#	245912
#	270677
#	285080
#	295120
#	307872
#	320732
#
# Disc length: 4582 seconds
#
# Revision: 2
# Processed by: cddbd v1.5.2PL0 Copyright (c) Steve Scherf et al.
# Submitted via: audiograbber 1.83.01
#
DISCID=5111e419
DTITLE=J.J. Cale - Anyway The Wind Blows, The Anthology CD1
DYEAR=1997
DGENRE=Country
TTITLE0=Call Me The Breeze (1972)
TTITLE1=Crazy Mama (1972)
TTITLE2=Magnolia (1972)
TTITLE3=After Midnight (1972)
TTITLE4=Lies (1972)
TTITLE5=Changes (1972)
TTITLE6=If You're Ever In Oklahoma (1972)
TTITLE7=Midnight In Memphis (1972)
TTITLE8=Cajun Moon (1974)
TTITLE9=Rock And Roll Records (1974)
TTITLE10=Anyway The Wind Blows (1974)
TTITLE11=Crying (1974)
TTITLE12=Everlovin' Woman (1974)
TTITLE13=I Got The Same Old Blues (1974)
TTITLE14=Woke Up This Morning (1974)
TTITLE15=Cocaine (1976)
TTITLE16=The Woman That Got Away (1976)
TTITLE17=Ride Me High (1976)
TTITLE18=Hey Baby (1976)
TTITLE19=Durango (1976)
TTITLE20=I'll Make Love To You Anytime (1979)
TTITLE21=Don't Cry Sister (1979)
TTITLE22=Thirteen Days (1979)
TTITLE23=Things Ain't Simple (1979)
TTITLE24=Sensitive Kind (1979)
EXTD=Track dates provided.
EXTT0=
EXTT1=
EXTT2=
EXTT3=
EXTT4=
EXTT5=
EXTT6=
EXTT7=
EXTT8=
EXTT9=
EXTT10=
EXTT11=
EXTT12=
EXTT13=
EXTT14=
EXTT15=
EXTT16=
EXTT17=
EXTT18=
EXTT19=
EXTT20=
EXTT21=
EXTT22=
EXTT23=
EXTT24=
PLAYORDER=
